<svg width="50" height="67" viewBox="0 0 50 67" fill="none" xmlns="http://www.w3.org/2000/svg">
<path d="M47.922 33.8025C47.1006 33.1865 45.9713 32.8271 44.8419 32.8271C44.7906 30.9791 44.7393 29.1311 44.7393 27.3344C44.6879 22.4577 44.6879 17.4269 43.4046 12.6528C46.7413 11.3695 46.5873 8.75145 46.4333 7.9301C46.074 5.97941 44.3799 3.87471 41.8132 3.87471C40.8379 3.87471 39.8112 4.18271 38.8358 4.85006C34.9345 1.56467 29.5957 1 24.2056 1C19.3289 1.41067 15.9408 2.18068 13.1688 3.51537C11.9881 4.08005 11.0128 4.74739 10.0887 5.5174C9.16473 4.95273 8.18939 4.64472 7.26537 4.64472C4.64733 4.64472 2.74797 6.74942 2.43997 8.80278C2.13196 10.8561 3.26131 12.5502 5.52001 13.3715C4.39066 17.9403 4.75 22.663 5.16067 27.2317C5.31468 29.1311 5.46868 31.1331 5.52001 33.0838H5.26334C4.08266 33.0838 2.90197 33.4431 2.02929 34.0592C1.66995 34.3158 0.951276 35.0858 1.00261 35.7532C1.00261 35.9585 1.10528 36.2152 1.46462 36.4205C1.56729 37.4985 2.23463 37.6525 2.6453 37.6525C3.46665 37.6525 4.39066 37.0879 4.64733 36.8825C4.904 36.7285 5.10934 36.6259 5.26334 36.5745L5.52001 36.4719C5.46868 37.6012 5.36601 38.7819 5.26334 40.0652C4.80133 46.0713 4.23666 52.8988 7.26537 57.8268C7.88138 58.8022 8.60006 59.6749 9.47274 60.4449L9.01073 60.7529C7.62471 61.7282 5.57135 63.1656 6.80337 65.1163V65.1676C7.0087 65.373 7.11137 65.4243 7.26537 65.4243H7.31671C7.47071 65.681 7.77871 66.2456 8.54872 66.2456C8.85673 66.2456 9.21607 66.143 9.57541 65.9376C10.1401 65.6296 10.6534 65.219 11.1154 64.8083C11.8854 64.1409 12.6555 63.4736 13.6821 63.3196L13.9901 63.2683L14.3495 63.4223C17.6349 64.7569 20.9716 65.1163 23.2303 65.1676H24.565C28.5177 65.1676 32.1624 64.5516 35.0885 63.3709C35.7045 63.1143 36.3205 62.8063 36.8851 62.4982C37.5012 62.7549 38.0658 63.3709 38.6305 64.0383C39.3492 64.8596 40.0679 65.681 40.9405 65.681C41.3512 65.681 41.7619 65.4756 42.1726 65.1163C42.7886 64.7569 43.0966 64.2436 43.0966 63.6276C43.0966 62.2929 41.6079 60.7016 40.4272 59.9315C41.4539 58.9049 42.2752 57.7755 42.9426 56.4922C45.9713 50.4347 45.5093 43.0426 45.0986 36.4719L45.3553 36.6259C45.6119 36.8312 46.536 37.3959 47.3573 37.3959C47.768 37.3959 48.4353 37.2419 48.538 36.1639C48.8973 35.9585 48.9487 35.7018 49 35.4965C49 34.8292 48.2813 34.0592 47.922 33.8025ZM39.1439 5.05539C40.0165 4.49072 40.8892 4.18271 41.8132 4.18271C44.0719 4.18271 45.766 6.08208 46.074 7.9301C46.382 9.82946 45.3553 11.4208 43.3019 12.2422C43.3019 12.1395 43.2506 12.0882 43.1992 11.9855L42.8912 10.9075L42.7372 10.4968L42.2752 9.26479C42.2752 9.21346 42.2752 9.21346 42.2239 9.16212C42.2239 9.16212 42.2239 9.11079 42.1726 9.11079C41.9672 8.75145 41.8132 8.39211 41.6079 8.08411L41.5052 7.9301L40.8892 7.00609C40.8379 6.95475 40.7865 6.90342 40.7352 6.80075C40.5299 6.54408 40.3245 6.28741 40.0679 6.03074C40.0165 5.92807 39.9139 5.87674 39.8112 5.77407L39.1952 5.15806C39.2465 5.2094 39.1952 5.10673 39.1439 5.05539ZM5.62268 13.0122C3.56932 12.2422 2.4913 10.7021 2.7993 8.85412C3.10731 6.95476 4.85267 5.00406 7.26537 5.00406C8.13805 5.00406 8.9594 5.26073 9.78074 5.72274L9.72941 5.77407L9.57541 5.92807C9.31874 6.18474 9.06206 6.44141 8.85673 6.69808L8.70273 6.85209C8.44606 7.16009 8.18939 7.4681 7.93271 7.82743L7.83005 7.98144C7.57338 8.34078 7.36804 8.64878 7.1627 9.00812C7.1627 9.00812 7.1627 9.05945 7.11137 9.05945C6.90603 9.41879 6.7007 9.82946 6.54669 10.2401C6.54669 10.3428 6.49536 10.4455 6.49536 10.4968C6.34136 10.9075 6.13602 11.3182 6.03335 11.7288C6.03335 11.7802 6.03335 11.7802 5.98202 11.8315L5.67401 12.8582L5.62268 13.0122ZM5.16067 36.2152C5.00667 36.2665 4.75 36.3692 4.442 36.5745C3.92865 36.9339 3.20998 37.2932 2.6453 37.2932C2.3373 37.2932 1.92662 37.1905 1.82396 36.4205C2.08063 36.3179 2.3373 36.2152 2.54263 35.9585C2.59397 35.8558 2.59397 35.7532 2.4913 35.7018C2.38863 35.6505 2.28596 35.6505 2.23463 35.7532C2.08063 35.9072 1.92662 36.0099 1.66995 36.0612H1.61862C1.46462 35.9585 1.36195 35.8558 1.31061 35.7018C1.36195 35.2398 1.87529 34.6238 2.23463 34.3158C3.05598 33.6998 4.13399 33.3918 5.26334 33.3918H5.57135V34.8805L5.52001 35.3938C5.46868 36.1125 5.41734 36.1125 5.16067 36.2152ZM13.2715 62.9089L13.3228 62.9603C12.3474 63.2169 11.5774 63.8329 10.8588 64.4489C10.3968 64.8596 9.93474 65.2703 9.37007 65.527C9.06206 65.7323 8.80539 65.7836 8.54872 65.7836C8.03538 65.7836 7.77871 65.373 7.67604 65.1676C7.72738 64.7569 7.93271 64.3976 8.18939 64.0383C8.34339 63.8329 8.49739 63.5763 8.60006 63.3196C8.65139 63.2169 8.60006 63.1143 8.49739 63.0629C8.39472 63.0116 8.29205 63.0629 8.24072 63.1656C8.13805 63.3709 7.98405 63.5763 7.88138 63.8329C7.67605 64.1923 7.41937 64.5516 7.31671 64.9623H7.26537C7.21404 64.9623 7.1627 64.9109 7.06004 64.8083C6.03335 63.1656 7.77871 61.9849 9.21607 60.9582L9.67808 60.6502H9.78074L9.88341 60.7016L10.4994 61.1636L10.7048 61.3176C10.9101 61.4716 11.1154 61.6256 11.3721 61.7796L11.6288 61.9336L12.2961 62.3442L12.6041 62.4982C12.8095 62.6522 13.0148 62.7549 13.2715 62.9089ZM40.1192 60.1882C41.1972 60.9069 42.6859 62.4469 42.6859 63.6276C42.6859 64.0383 42.4806 64.3976 42.1212 64.6543C42.0699 64.5003 42.0186 64.3463 41.9159 64.1923C41.7619 63.7303 41.5566 63.2169 41.1459 62.8576C41.0945 62.8063 40.9405 62.8063 40.8892 62.8576C40.8379 62.9089 40.8379 63.0629 40.8892 63.1143C41.2486 63.4223 41.4026 63.8843 41.5566 64.3463L41.7619 64.9109C41.4539 65.1676 41.1459 65.3216 40.8379 65.3216C40.1192 65.3216 39.5032 64.5516 38.8358 63.7816C38.3225 63.2169 37.8092 62.6009 37.2445 62.2416L37.3985 62.1389C37.5525 62.0876 37.6552 61.9849 37.7578 61.8822L38.4252 61.4202L38.8358 61.1122L39.5545 60.5476C39.6572 60.4449 39.7599 60.3422 39.9139 60.2395C40.0165 60.2909 40.0679 60.2395 40.1192 60.1882ZM42.5319 56.3382C41.9159 57.6215 40.7865 59.2642 38.8872 60.7016L38.7845 60.7529C38.6305 60.9069 38.4252 61.0096 38.2198 61.1636L37.6552 61.5229L37.5525 61.5742L36.7311 62.0362L36.3718 62.2416C33.5998 63.6789 29.801 64.7056 24.4623 64.7056H23.1276C18.9695 64.5516 15.7868 63.6789 13.4255 62.5496H13.3741C12.8095 62.2929 12.2961 61.9849 11.7828 61.6769C9.4214 60.1882 8.13805 58.5455 7.52204 57.5702C4.54466 52.7448 5.05801 46.02 5.57135 40.0652C5.67401 38.5252 5.82802 37.1392 5.87935 35.7532L5.93068 34.8292L5.98202 34.7778V34.7265L5.93068 34.4698V33.0838C5.87935 31.0304 5.72535 29.1311 5.57135 27.1804C5.16067 22.5603 4.80133 17.7349 6.03335 13.1148C6.13602 12.7042 6.23869 12.2935 6.39269 11.9342V11.8828L6.44403 11.7288C6.49536 11.5235 6.59803 11.3182 6.7007 11.1128C6.75203 10.9588 6.80337 10.8561 6.8547 10.7535L7.0087 10.3428L7.21404 9.93213L7.36804 9.62413C7.41937 9.47013 7.52204 9.31612 7.57338 9.21346C7.62471 9.11079 7.67604 9.00812 7.72738 8.95678C7.83005 8.75145 7.98405 8.54611 8.08672 8.39211C8.18939 8.23811 8.29205 8.08411 8.39472 7.98144C8.44606 7.87877 8.49739 7.82743 8.60006 7.72477L8.90806 7.31409C8.9594 7.26276 9.01073 7.21143 9.06207 7.10876L9.52407 6.59542L9.57541 6.54408L10.1914 5.92807L10.2941 5.8254C13.8875 2.74536 19.0209 1.82135 24.2056 1.41067C27.2343 1.41067 31.1357 1.56467 34.4724 2.79669C36.1151 3.4127 37.5525 4.23405 38.7845 5.31206C38.9385 5.46607 39.0925 5.62007 39.2465 5.72274L39.7085 6.18474L40.2219 6.80075L40.5299 7.16009L41.0432 7.87877L41.2999 8.23811L41.7619 9.00812L41.9672 9.41879C42.1212 9.7268 42.2239 10.0861 42.3266 10.4455C42.3266 10.4968 42.3779 10.5481 42.3779 10.6508C42.4806 10.9588 42.5832 11.2668 42.6859 11.5235L42.7372 11.6775C44.2773 16.7596 44.3286 22.047 44.3286 27.2831C44.3286 29.0798 44.3286 31.0818 44.4313 32.6218V32.9298C44.4313 33.3918 44.4826 33.8538 44.4826 34.2132V34.2645L44.5339 35.2398C44.5339 35.5478 44.5853 35.9072 44.5853 36.2665V36.4205C45.0473 42.8886 45.5606 50.3321 42.5319 56.3382ZM48.2813 35.8045C48.0247 35.7018 47.8193 35.6505 47.6653 35.4452C47.614 35.3425 47.5113 35.3425 47.4086 35.3938C47.306 35.4452 47.306 35.5478 47.3573 35.6505C47.5626 35.9072 47.8193 36.0099 48.076 36.1125C47.9733 36.8825 47.5626 36.9852 47.2546 36.9852C46.69 36.9852 45.9713 36.6259 45.4579 36.2665C45.2526 36.1125 45.0986 36.0612 44.9446 36.0099L44.8419 34.7778C44.8419 34.5725 44.8419 34.3672 44.7906 34.2132C44.7906 33.9052 44.7393 33.5458 44.7393 33.1865C45.8173 33.2378 46.844 33.5458 47.614 34.1105C47.9733 34.3672 48.538 35.0345 48.4867 35.4452C48.538 35.5992 48.4353 35.7532 48.2813 35.8045ZM32.0084 4.43938C30.0577 4.43938 28.1584 5.26073 26.9263 6.54408C25.797 7.7761 25.2323 9.31612 25.335 11.0615V11.1128C26.0023 14.8089 29.0824 16.1436 31.5464 16.1436C33.7024 16.1436 35.7045 15.2195 36.8851 13.7309C37.9118 12.4475 38.2712 10.7535 37.8092 8.95678C37.0392 5.6714 34.3184 4.43938 32.0084 4.43938ZM36.5771 13.4229C35.4991 14.8089 33.5484 15.6302 31.4951 15.6302C30.109 15.6302 28.8257 15.2709 27.799 14.5522C26.6697 13.7309 25.951 12.5502 25.6943 11.0101C25.5916 9.36746 26.105 7.9301 27.183 6.80075C28.3637 5.5174 30.1604 4.79872 32.0084 4.79872C34.1644 4.79872 36.7312 5.87674 37.4498 8.95678C37.8605 10.7021 37.5525 12.2422 36.5771 13.4229ZM22.7169 10.5995C22.5116 6.85209 19.5342 5.15806 16.6595 5.15806C14.5548 5.15806 12.6041 6.03074 11.3721 7.4681C10.2941 8.80278 9.93475 10.4968 10.2941 12.3962C11.1154 15.6302 13.8875 16.7596 16.1975 16.7596C18.1482 16.7596 19.9962 15.9896 21.2282 14.7062C22.3063 13.5769 22.8196 12.1395 22.7169 10.5995ZM16.2488 16.4002C14.0928 16.4002 11.4748 15.3222 10.7048 12.2935C10.3454 10.4968 10.7048 8.90545 11.7314 7.67343C12.8608 6.28741 14.7088 5.46607 16.7108 5.46607C20.6636 5.46607 22.2549 8.23811 22.4089 10.5995C22.5116 12.0882 22.0496 13.4229 21.0742 14.4495C19.8936 15.6816 18.0969 16.4002 16.2488 16.4002ZM13.4768 9.26479C12.5014 9.26479 11.6801 10.1375 11.6801 11.2155C11.6801 12.2935 12.5014 13.1662 13.4768 13.1662C14.4521 13.1662 15.2735 12.2935 15.2735 11.2155C15.2735 10.1375 14.4521 9.26479 13.4768 9.26479ZM14.2981 12.1908C14.0415 12.1908 13.8875 11.9855 13.8875 11.6775C13.8875 11.4208 14.0928 11.1642 14.2981 11.1642C14.5548 11.1642 14.7088 11.3695 14.7088 11.6775C14.7088 11.9342 14.5035 12.1908 14.2981 12.1908ZM28.6204 8.80278C27.645 8.80278 26.8237 9.67546 26.8237 10.7535C26.8237 11.8315 27.645 12.7042 28.6204 12.7042C29.5957 12.7042 30.4171 11.8315 30.4171 10.7535C30.4171 9.67546 29.647 8.80278 28.6204 8.80278ZM29.4417 11.6775C29.185 11.6775 29.031 11.4722 29.031 11.1642C29.031 10.9075 29.2364 10.6508 29.4417 10.6508C29.6984 10.6508 29.8524 10.8561 29.8524 11.1642C29.8524 11.4722 29.6984 11.6775 29.4417 11.6775ZM27.2857 16.2976C27.337 16.1436 27.337 15.9382 27.2857 15.7329C26.721 13.6282 21.9469 13.9362 21.9469 16.4002C21.9469 16.1949 21.8956 16.0922 21.8956 15.9896C21.8956 16.1436 21.9469 16.2976 21.9469 16.4002C21.1769 16.5029 20.5096 17.0162 20.0989 17.7862C19.7396 18.5049 19.6882 19.2749 20.0476 19.9423C20.3556 20.507 20.8689 20.815 21.4849 20.815C21.2796 21.893 21.4849 23.1763 21.9983 23.895C22.2549 24.2543 22.6143 24.4597 22.9223 24.4597C23.3843 24.4597 23.8976 24.1003 24.3596 23.5357C24.6676 24.049 25.1296 24.4083 25.7457 24.511H25.8483C25.951 24.4597 26.0537 24.4083 26.1563 24.4083C26.5157 24.3057 26.875 24.1517 27.1317 23.741V23.6897C27.2857 22.971 27.183 22.201 27.1317 21.4823L27.0803 20.8663C27.337 20.969 27.5937 21.0203 27.8503 21.0203C28.3637 21.0203 28.7744 20.815 29.1337 20.4043C29.5957 19.8909 29.7497 19.3776 29.647 18.8643C29.5957 17.6836 28.415 16.8109 27.2857 16.2976ZM24.257 23.0737C23.795 23.6383 23.3843 23.9463 23.0249 23.9463C22.7683 23.9463 22.5629 23.7923 22.3576 23.587C21.8956 22.971 21.6903 21.6876 21.8956 20.7123L22.1523 20.661H22.2549L22.5629 20.6096H22.6143L23.2303 20.4043L23.5383 20.3016C23.5896 20.3016 23.5896 20.3016 23.641 20.2503C23.7436 20.199 23.795 20.199 23.8976 20.199C24.0003 20.1476 24.103 20.1476 24.257 20.0963H24.3596L24.3083 20.7636C24.257 21.431 24.2056 22.2523 24.257 23.0737ZM26.9263 21.3796C26.9777 22.047 27.029 22.7657 26.9263 23.433C26.7723 23.741 26.5157 23.7923 26.1563 23.9463L25.8483 24.049C25.335 23.9463 24.9243 23.6383 24.719 23.125C24.6163 22.355 24.6676 21.585 24.7703 20.7636L24.8216 19.9936H24.873C25.4376 19.9936 25.951 20.2503 26.4643 20.4556L26.8237 20.6096C26.875 20.815 26.9263 21.0716 26.9263 21.3796ZM29.031 19.9936C28.723 20.353 28.3637 20.507 28.0044 20.507C27.6963 20.507 27.4397 20.4043 27.1317 20.3016C26.9777 20.2503 26.8237 20.199 26.6697 20.0963C26.105 19.8909 25.5403 19.6343 24.9243 19.6343H24.257L24.0516 19.6856C24.0003 19.6856 23.949 19.6856 23.8976 19.7369C23.795 19.7369 23.7436 19.7883 23.641 19.8396C23.5896 19.8396 23.5383 19.8396 23.5383 19.8909L23.1276 20.0449C23.0763 20.0963 22.9736 20.0963 22.9223 20.0963L22.7683 20.1476L22.6143 20.199C22.5116 20.2503 22.4603 20.2503 22.3576 20.2503C22.3063 20.2503 22.2549 20.2503 22.2036 20.3016L21.9469 20.353H21.8443L21.5363 20.4043C21.0229 20.4043 20.6636 20.199 20.4069 19.7369C20.0989 19.2236 20.0989 18.5563 20.4582 17.9403C20.8176 17.3242 21.4336 16.8622 22.0496 16.7596C22.6656 18.0429 26.2077 17.8889 27.1317 16.6569C28.1584 17.1189 29.2877 17.9403 29.4417 18.8129C29.5444 19.1723 29.3904 19.5829 29.031 19.9936Z" fill="black"/>
<path d="M21.9469 16.4002C21.9469 13.9362 26.721 13.6282 27.2857 15.7329C27.337 15.9382 27.337 16.1436 27.2857 16.2976C28.415 16.8109 29.5957 17.6836 29.647 18.8643C29.7497 19.3776 29.5957 19.8909 29.1337 20.4043C28.7744 20.815 28.3637 21.0203 27.8503 21.0203C27.5937 21.0203 27.337 20.969 27.0803 20.8663L27.1317 21.4823C27.183 22.201 27.2857 22.971 27.1317 23.6897V23.741C26.875 24.1517 26.5157 24.3057 26.1563 24.4083C26.0537 24.4083 25.951 24.4597 25.8483 24.511H25.7457C25.1296 24.4083 24.6676 24.049 24.3596 23.5357C23.8976 24.1003 23.3843 24.4597 22.9223 24.4597C22.6143 24.4597 22.2549 24.2543 21.9983 23.895C21.4849 23.1763 21.2796 21.893 21.4849 20.815C20.8689 20.815 20.3556 20.507 20.0476 19.9423C19.6882 19.2749 19.7396 18.5049 20.0989 17.7862C20.5096 17.0162 21.1769 16.5029 21.9469 16.4002ZM21.9469 16.4002C21.9469 16.1949 21.8956 16.0922 21.8956 15.9896C21.8956 16.1436 21.9469 16.2976 21.9469 16.4002ZM47.922 33.8025C47.1006 33.1865 45.9713 32.8271 44.8419 32.8271C44.7906 30.9791 44.7393 29.1311 44.7393 27.3344C44.6879 22.4577 44.6879 17.4269 43.4046 12.6528C46.7413 11.3695 46.5873 8.75145 46.4333 7.9301C46.074 5.97941 44.3799 3.87471 41.8132 3.87471C40.8379 3.87471 39.8112 4.18271 38.8358 4.85006C34.9345 1.56467 29.5957 1 24.2056 1C19.3289 1.41067 15.9408 2.18068 13.1688 3.51537C11.9881 4.08005 11.0128 4.74739 10.0887 5.5174C9.16473 4.95273 8.18939 4.64472 7.26537 4.64472C4.64733 4.64472 2.74797 6.74942 2.43997 8.80278C2.13196 10.8561 3.26131 12.5502 5.52001 13.3715C4.39066 17.9403 4.75 22.663 5.16067 27.2317C5.31468 29.1311 5.46868 31.1331 5.52001 33.0838H5.26334C4.08266 33.0838 2.90197 33.4431 2.02929 34.0592C1.66995 34.3158 0.951276 35.0858 1.00261 35.7532C1.00261 35.9585 1.10528 36.2152 1.46462 36.4205C1.56729 37.4985 2.23463 37.6525 2.6453 37.6525C3.46665 37.6525 4.39066 37.0879 4.64733 36.8825C4.904 36.7285 5.10934 36.6259 5.26334 36.5745L5.52001 36.4719C5.46868 37.6012 5.36601 38.7819 5.26334 40.0652C4.80133 46.0713 4.23666 52.8988 7.26537 57.8268C7.88138 58.8022 8.60006 59.6749 9.47274 60.4449L9.01073 60.7529C7.62471 61.7282 5.57135 63.1656 6.80337 65.1163V65.1676C7.0087 65.373 7.11137 65.4243 7.26537 65.4243H7.31671C7.47071 65.681 7.77871 66.2456 8.54872 66.2456C8.85673 66.2456 9.21607 66.143 9.57541 65.9376C10.1401 65.6296 10.6534 65.219 11.1154 64.8083C11.8854 64.1409 12.6555 63.4736 13.6821 63.3196L13.9901 63.2683L14.3495 63.4223C17.6349 64.7569 20.9716 65.1163 23.2303 65.1676H24.565C28.5177 65.1676 32.1624 64.5516 35.0885 63.3709C35.7045 63.1143 36.3205 62.8063 36.8851 62.4982C37.5012 62.7549 38.0658 63.3709 38.6305 64.0383C39.3492 64.8596 40.0679 65.681 40.9405 65.681C41.3512 65.681 41.7619 65.4756 42.1726 65.1163C42.7886 64.7569 43.0966 64.2436 43.0966 63.6276C43.0966 62.2929 41.6079 60.7016 40.4272 59.9315C41.4539 58.9049 42.2752 57.7755 42.9426 56.4922C45.9713 50.4347 45.5093 43.0426 45.0986 36.4719L45.3553 36.6259C45.6119 36.8312 46.536 37.3959 47.3573 37.3959C47.768 37.3959 48.4353 37.2419 48.538 36.1639C48.8973 35.9585 48.9487 35.7018 49 35.4965C49 34.8292 48.2813 34.0592 47.922 33.8025ZM39.1439 5.05539C40.0165 4.49072 40.8892 4.18271 41.8132 4.18271C44.0719 4.18271 45.766 6.08208 46.074 7.9301C46.382 9.82946 45.3553 11.4208 43.3019 12.2422C43.3019 12.1395 43.2506 12.0882 43.1992 11.9855L42.8912 10.9075L42.7372 10.4968L42.2752 9.26479C42.2752 9.21346 42.2752 9.21346 42.2239 9.16212C42.2239 9.16212 42.2239 9.11079 42.1726 9.11079C41.9672 8.75145 41.8132 8.39211 41.6079 8.08411L41.5052 7.9301L40.8892 7.00609C40.8379 6.95475 40.7865 6.90342 40.7352 6.80075C40.5299 6.54408 40.3245 6.28741 40.0679 6.03074C40.0165 5.92807 39.9139 5.87674 39.8112 5.77407L39.1952 5.15806C39.2465 5.2094 39.1952 5.10673 39.1439 5.05539ZM5.62268 13.0122C3.56932 12.2422 2.4913 10.7021 2.7993 8.85412C3.10731 6.95476 4.85267 5.00406 7.26537 5.00406C8.13805 5.00406 8.9594 5.26073 9.78074 5.72274L9.72941 5.77407L9.57541 5.92807C9.31874 6.18474 9.06206 6.44141 8.85673 6.69808L8.70273 6.85209C8.44606 7.16009 8.18939 7.4681 7.93271 7.82743L7.83005 7.98144C7.57338 8.34078 7.36804 8.64878 7.1627 9.00812C7.1627 9.00812 7.1627 9.05945 7.11137 9.05945C6.90603 9.41879 6.7007 9.82946 6.54669 10.2401C6.54669 10.3428 6.49536 10.4455 6.49536 10.4968C6.34136 10.9075 6.13602 11.3182 6.03335 11.7288C6.03335 11.7802 6.03335 11.7802 5.98202 11.8315L5.67401 12.8582L5.62268 13.0122ZM5.16067 36.2152C5.00667 36.2665 4.75 36.3692 4.442 36.5745C3.92865 36.9339 3.20998 37.2932 2.6453 37.2932C2.3373 37.2932 1.92662 37.1905 1.82396 36.4205C2.08063 36.3179 2.3373 36.2152 2.54263 35.9585C2.59397 35.8558 2.59397 35.7532 2.4913 35.7018C2.38863 35.6505 2.28596 35.6505 2.23463 35.7532C2.08063 35.9072 1.92662 36.0099 1.66995 36.0612H1.61862C1.46462 35.9585 1.36195 35.8558 1.31061 35.7018C1.36195 35.2398 1.87529 34.6238 2.23463 34.3158C3.05598 33.6998 4.13399 33.3918 5.26334 33.3918H5.57135V34.8805L5.52001 35.3938C5.46868 36.1125 5.41734 36.1125 5.16067 36.2152ZM13.2715 62.9089L13.3228 62.9603C12.3474 63.2169 11.5774 63.8329 10.8588 64.4489C10.3968 64.8596 9.93474 65.2703 9.37007 65.527C9.06206 65.7323 8.80539 65.7836 8.54872 65.7836C8.03538 65.7836 7.77871 65.373 7.67604 65.1676C7.72738 64.7569 7.93271 64.3976 8.18939 64.0383C8.34339 63.8329 8.49739 63.5763 8.60006 63.3196C8.65139 63.2169 8.60006 63.1143 8.49739 63.0629C8.39472 63.0116 8.29205 63.0629 8.24072 63.1656C8.13805 63.3709 7.98405 63.5763 7.88138 63.8329C7.67605 64.1923 7.41937 64.5516 7.31671 64.9623H7.26537C7.21404 64.9623 7.1627 64.9109 7.06004 64.8083C6.03335 63.1656 7.77871 61.9849 9.21607 60.9582L9.67808 60.6502H9.78074L9.88341 60.7016L10.4994 61.1636L10.7048 61.3176C10.9101 61.4716 11.1154 61.6256 11.3721 61.7796L11.6288 61.9336L12.2961 62.3442L12.6041 62.4982C12.8095 62.6522 13.0148 62.7549 13.2715 62.9089ZM40.1192 60.1882C41.1972 60.9069 42.6859 62.4469 42.6859 63.6276C42.6859 64.0383 42.4806 64.3976 42.1212 64.6543C42.0699 64.5003 42.0186 64.3463 41.9159 64.1923C41.7619 63.7303 41.5566 63.2169 41.1459 62.8576C41.0945 62.8063 40.9405 62.8063 40.8892 62.8576C40.8379 62.9089 40.8379 63.0629 40.8892 63.1143C41.2486 63.4223 41.4026 63.8843 41.5566 64.3463L41.7619 64.9109C41.4539 65.1676 41.1459 65.3216 40.8379 65.3216C40.1192 65.3216 39.5032 64.5516 38.8358 63.7816C38.3225 63.2169 37.8092 62.6009 37.2445 62.2416L37.3985 62.1389C37.5525 62.0876 37.6552 61.9849 37.7578 61.8822L38.4252 61.4202L38.8358 61.1122L39.5545 60.5476C39.6572 60.4449 39.7599 60.3422 39.9139 60.2395C40.0165 60.2909 40.0679 60.2395 40.1192 60.1882ZM42.5319 56.3382C41.9159 57.6215 40.7865 59.2642 38.8872 60.7016L38.7845 60.7529C38.6305 60.9069 38.4252 61.0096 38.2198 61.1636L37.6552 61.5229L37.5525 61.5742L36.7311 62.0362L36.3718 62.2416C33.5998 63.6789 29.801 64.7056 24.4623 64.7056H23.1276C18.9695 64.5516 15.7868 63.6789 13.4255 62.5496H13.3741C12.8095 62.2929 12.2961 61.9849 11.7828 61.6769C9.4214 60.1882 8.13805 58.5455 7.52204 57.5702C4.54466 52.7448 5.05801 46.02 5.57135 40.0652C5.67401 38.5252 5.82802 37.1392 5.87935 35.7532L5.93068 34.8292L5.98202 34.7778V34.7265L5.93068 34.4698V33.0838C5.87935 31.0304 5.72535 29.1311 5.57135 27.1804C5.16067 22.5603 4.80133 17.7349 6.03335 13.1148C6.13602 12.7042 6.23869 12.2935 6.39269 11.9342V11.8828L6.44403 11.7288C6.49536 11.5235 6.59803 11.3182 6.7007 11.1128C6.75203 10.9588 6.80337 10.8561 6.8547 10.7535L7.0087 10.3428L7.21404 9.93213L7.36804 9.62413C7.41937 9.47013 7.52204 9.31612 7.57338 9.21346C7.62471 9.11079 7.67604 9.00812 7.72738 8.95678C7.83005 8.75145 7.98405 8.54611 8.08672 8.39211C8.18939 8.23811 8.29205 8.08411 8.39472 7.98144C8.44606 7.87877 8.49739 7.82743 8.60006 7.72477L8.90806 7.31409C8.9594 7.26276 9.01073 7.21143 9.06207 7.10876L9.52407 6.59542L9.57541 6.54408L10.1914 5.92807L10.2941 5.8254C13.8875 2.74536 19.0209 1.82135 24.2056 1.41067C27.2343 1.41067 31.1357 1.56467 34.4724 2.79669C36.1151 3.4127 37.5525 4.23405 38.7845 5.31206C38.9385 5.46607 39.0925 5.62007 39.2465 5.72274L39.7085 6.18474L40.2219 6.80075L40.5299 7.16009L41.0432 7.87877L41.2999 8.23811L41.7619 9.00812L41.9672 9.41879C42.1212 9.7268 42.2239 10.0861 42.3266 10.4455C42.3266 10.4968 42.3779 10.5481 42.3779 10.6508C42.4806 10.9588 42.5832 11.2668 42.6859 11.5235L42.7372 11.6775C44.2773 16.7596 44.3286 22.047 44.3286 27.2831C44.3286 29.0798 44.3286 31.0818 44.4313 32.6218V32.9298C44.4313 33.3918 44.4826 33.8538 44.4826 34.2132V34.2645L44.5339 35.2398C44.5339 35.5478 44.5853 35.9072 44.5853 36.2665V36.4205C45.0473 42.8886 45.5606 50.3321 42.5319 56.3382ZM48.2813 35.8045C48.0247 35.7018 47.8193 35.6505 47.6653 35.4452C47.614 35.3425 47.5113 35.3425 47.4086 35.3938C47.306 35.4452 47.306 35.5478 47.3573 35.6505C47.5626 35.9072 47.8193 36.0099 48.076 36.1125C47.9733 36.8825 47.5626 36.9852 47.2546 36.9852C46.69 36.9852 45.9713 36.6259 45.4579 36.2665C45.2526 36.1125 45.0986 36.0612 44.9446 36.0099L44.8419 34.7778C44.8419 34.5725 44.8419 34.3672 44.7906 34.2132C44.7906 33.9052 44.7393 33.5458 44.7393 33.1865C45.8173 33.2378 46.844 33.5458 47.614 34.1105C47.9733 34.3672 48.538 35.0345 48.4867 35.4452C48.538 35.5992 48.4353 35.7532 48.2813 35.8045ZM32.0084 4.43938C30.0577 4.43938 28.1584 5.26073 26.9263 6.54408C25.797 7.7761 25.2323 9.31612 25.335 11.0615V11.1128C26.0023 14.8089 29.0824 16.1436 31.5464 16.1436C33.7024 16.1436 35.7045 15.2195 36.8851 13.7309C37.9118 12.4475 38.2712 10.7535 37.8092 8.95678C37.0392 5.6714 34.3184 4.43938 32.0084 4.43938ZM36.5771 13.4229C35.4991 14.8089 33.5484 15.6302 31.4951 15.6302C30.109 15.6302 28.8257 15.2709 27.799 14.5522C26.6697 13.7309 25.951 12.5502 25.6943 11.0101C25.5916 9.36746 26.105 7.9301 27.183 6.80075C28.3637 5.5174 30.1604 4.79872 32.0084 4.79872C34.1644 4.79872 36.7312 5.87674 37.4498 8.95678C37.8605 10.7021 37.5525 12.2422 36.5771 13.4229ZM22.7169 10.5995C22.5116 6.85209 19.5342 5.15806 16.6595 5.15806C14.5548 5.15806 12.6041 6.03074 11.3721 7.4681C10.2941 8.80278 9.93475 10.4968 10.2941 12.3962C11.1154 15.6302 13.8875 16.7596 16.1975 16.7596C18.1482 16.7596 19.9962 15.9896 21.2282 14.7062C22.3063 13.5769 22.8196 12.1395 22.7169 10.5995ZM16.2488 16.4002C14.0928 16.4002 11.4748 15.3222 10.7048 12.2935C10.3454 10.4968 10.7048 8.90545 11.7314 7.67343C12.8608 6.28741 14.7088 5.46607 16.7108 5.46607C20.6636 5.46607 22.2549 8.23811 22.4089 10.5995C22.5116 12.0882 22.0496 13.4229 21.0742 14.4495C19.8936 15.6816 18.0969 16.4002 16.2488 16.4002ZM13.4768 9.26479C12.5014 9.26479 11.6801 10.1375 11.6801 11.2155C11.6801 12.2935 12.5014 13.1662 13.4768 13.1662C14.4521 13.1662 15.2735 12.2935 15.2735 11.2155C15.2735 10.1375 14.4521 9.26479 13.4768 9.26479ZM14.2981 12.1908C14.0415 12.1908 13.8875 11.9855 13.8875 11.6775C13.8875 11.4208 14.0928 11.1642 14.2981 11.1642C14.5548 11.1642 14.7088 11.3695 14.7088 11.6775C14.7088 11.9342 14.5035 12.1908 14.2981 12.1908ZM28.6204 8.80278C27.645 8.80278 26.8237 9.67546 26.8237 10.7535C26.8237 11.8315 27.645 12.7042 28.6204 12.7042C29.5957 12.7042 30.4171 11.8315 30.4171 10.7535C30.4171 9.67546 29.647 8.80278 28.6204 8.80278ZM29.4417 11.6775C29.185 11.6775 29.031 11.4722 29.031 11.1642C29.031 10.9075 29.2364 10.6508 29.4417 10.6508C29.6984 10.6508 29.8524 10.8561 29.8524 11.1642C29.8524 11.4722 29.6984 11.6775 29.4417 11.6775ZM24.257 23.0737C23.795 23.6383 23.3843 23.9463 23.0249 23.9463C22.7683 23.9463 22.5629 23.7923 22.3576 23.587C21.8956 22.971 21.6903 21.6876 21.8956 20.7123L22.1523 20.661H22.2549L22.5629 20.6096H22.6143L23.2303 20.4043L23.5383 20.3016C23.5896 20.3016 23.5896 20.3016 23.641 20.2503C23.7436 20.199 23.795 20.199 23.8976 20.199C24.0003 20.1476 24.103 20.1476 24.257 20.0963H24.3596L24.3083 20.7636C24.257 21.431 24.2056 22.2523 24.257 23.0737ZM26.9263 21.3796C26.9777 22.047 27.029 22.7657 26.9263 23.433C26.7723 23.741 26.5157 23.7923 26.1563 23.9463L25.8483 24.049C25.335 23.9463 24.9243 23.6383 24.719 23.125C24.6163 22.355 24.6676 21.585 24.7703 20.7636L24.8216 19.9936H24.873C25.4376 19.9936 25.951 20.2503 26.4643 20.4556L26.8237 20.6096C26.875 20.815 26.9263 21.0716 26.9263 21.3796ZM29.031 19.9936C28.723 20.353 28.3637 20.507 28.0044 20.507C27.6963 20.507 27.4397 20.4043 27.1317 20.3016C26.9777 20.2503 26.8237 20.199 26.6697 20.0963C26.105 19.8909 25.5403 19.6343 24.9243 19.6343H24.257L24.0516 19.6856C24.0003 19.6856 23.949 19.6856 23.8976 19.7369C23.795 19.7369 23.7436 19.7883 23.641 19.8396C23.5896 19.8396 23.5383 19.8396 23.5383 19.8909L23.1276 20.0449C23.0763 20.0963 22.9736 20.0963 22.9223 20.0963L22.7683 20.1476L22.6143 20.199C22.5116 20.2503 22.4603 20.2503 22.3576 20.2503C22.3063 20.2503 22.2549 20.2503 22.2036 20.3016L21.9469 20.353H21.8443L21.5363 20.4043C21.0229 20.4043 20.6636 20.199 20.4069 19.7369C20.0989 19.2236 20.0989 18.5563 20.4582 17.9403C20.8176 17.3242 21.4336 16.8622 22.0496 16.7596C22.6656 18.0429 26.2077 17.8889 27.1317 16.6569C28.1584 17.1189 29.2877 17.9403 29.4417 18.8129C29.5444 19.1723 29.3904 19.5829 29.031 19.9936Z" stroke="black"/>
</svg>
